<svg viewBox="0 0 314.46 311.19" xmlns="http://www.w3.org/2000/svg" xmlns:xlink="http://www.w3.org/1999/xlink" id="Layer_1" overflow="hidden"><defs></defs><path d="M111.85 291.64C112.33 296.84 113.92 304.73 119.72 311.5 125.37 318.11 134.96 323.61 162.97 324.75 194.77 326.04 235.06 327.69 245.54 306.75 250.6 296.66 247.93 282.85 246.54 275.53 244.54 264.96 240.75 258.26 238.68 253.78 222.79 219.48 247.32 190.93 232.78 178.09 221.36 168.01 204.63 184.2 173.78 173.36 156.85 167.41 154.84 160.05 147.24 162.01 128.09 166.95 119.82 219.21 123.65 246.21 124.69 252.474 124.69 258.866 123.65 265.13 121.883 274.78 117.838 283.869 111.85 291.64Z" fill="#101F38" transform="translate(-24.19 -14.24)"/><path d="M31.25 169.6C10.67 139.61 38.11 82 74.5 50.4 118.61 12.13 173.95 13.83 187.5 14.45 198.87 14.97 263.15 17.9 304.5 68.38 329.09 98.38 352.23 153.47 329.07 182.84 320.27 194.01 281.21 195.6 204.23 198.93 204.23 198.93 183.17 199.84 128.54 198.93 93.84 198.35 72.76 197.2 50.89 184.74 41.74 179.51 35.81 176.24 31.25 169.6Z" fill="#1A3260" transform="translate(-24.19 -14.24)"/><path d="" fill="#101F38" transform="translate(-24.19 -14.24)"/><ellipse cx="84.22" cy="74.95" rx="23.1" ry="22.7" fill="#FFFFFF"/><ellipse cx="194.32" cy="62.18" rx="41.78" ry="37.37" fill="#FFFFFF"/><ellipse cx="147.62" cy="138.33" rx="21.21" ry="17.02" fill="#FFFFFF"/><ellipse cx="261.56" cy="133.46" rx="21.21" ry="17.02" fill="#FFFFFF"/><path d="M59.67 185.27C58.48 176.47 76.33 159.78 93.46 161.48 112.76 163.4 126.86 188.27 123.09 196.21 120.81 201 111.92 199.86 96.09 197.84 78 195.53 60.76 193.33 59.67 185.27Z" fill="#FFFFFF" transform="translate(-24.19 -14.24)"/><path d="" fill="#FFFFFF" transform="translate(-24.19 -14.24)"/></svg>